<?xml version="1.0" encoding="utf-8"?>
<!-- Generator: Adobe Illustrator 16.0.3, SVG Export Plug-In . SVG Version: 6.00 Build 0)  -->
<!DOCTYPE svg PUBLIC "-//W3C//DTD SVG 1.1//EN" "http://www.w3.org/Graphics/SVG/1.1/DTD/svg11.dtd">
<svg version="1.1" id="Layer_1" xmlns="http://www.w3.org/2000/svg" xmlns:xlink="http://www.w3.org/1999/xlink" x="0px" y="0px"
	 width="288px" height="108px" viewBox="0 0 288 108" style="enable-background:new 0 0 288 108;" xml:space="preserve">
<style type="text/css">
<![CDATA[
	.st0{fill:#88B689;}
	.st1{fill:#2592C1;}
	.st2{fill:#5AA53C;}
	.st3{fill:#29AAE2;}
	.st4{fill:#F8DE02;}
	.st5{fill:#69BD45;}
]]>
</style>
<g>
	<g>
		<g>
			<path class="st3" d="M11.3,47.3c0-2,0.7-3.6,2-5c1.3-1.4,2.9-2.1,4.8-2.1s3.4,0.7,4.8,2.1c1.3,1.4,2,3,2,5v25.6h-4.5v-4.5h-4.5
				v4.5h-4.5V47.3z M20.3,64v-7.5v-9.2c0-0.7-0.2-1.3-0.6-1.8c-0.4-0.5-1-0.7-1.6-0.7s-1.1,0.2-1.6,0.7c-0.4,0.5-0.6,1.1-0.6,1.8
				v9.2V64H20.3z"/>
			<path class="st3" d="M42,58.8h0.2c0.9,0,1.8,0.2,2.5,0.4c0.7,0.3,1.4,0.7,1.9,1.2c0.5,0.5,1,1,1.4,1.4c0.4,0.5,0.9,1,1.4,1.4
				c0.5,0.5,1,0.8,1.5,1v4c-0.8-0.1-1.6-0.4-2.2-0.7c-0.2,1.7-1,3.1-2.3,4.2c-1.3,1.1-2.7,1.7-4.4,1.7c-1.9,0-3.4-0.7-4.8-2.1
				c-1.3-1.4-2-3-2-5V47.3c0-2,0.7-3.6,2-5c1.3-1.4,2.9-2.1,4.8-2.1c1.9,0,3.5,0.7,4.8,2.1c1.3,1.4,2,3,2,5v2.5h-4.5v-2.5
				c0-0.7-0.2-1.3-0.6-1.8c-0.4-0.5-1-0.7-1.6-0.7c-0.6,0-1.1,0.2-1.6,0.7c-0.4,0.5-0.6,1.1-0.6,1.8v19.2c0,0.7,0.2,1.3,0.6,1.8
				c0.4,0.5,1,0.7,1.6,0.7c0.6,0,1.1-0.3,1.6-0.7c0.4-0.5,0.6-1.1,0.6-1.8v-3.1c-0.6-0.5-1.3-0.8-2-0.8H42V58.8z"/>
			<rect x="60" y="40.9" class="st3" width="4.5" height="32"/>
			<polygon class="st3" points="75.1,40.9 79.6,40.9 79.6,68.4 86.3,68.4 86.3,72.9 75.1,72.9 			"/>
			<polygon class="st3" points="107.3,68.4 107.3,72.9 100.5,72.9 96.1,72.9 96.1,68.4 96.1,45.4 96.1,40.9 100.5,40.9 105,40.9 
				105,45.4 100.5,45.4 100.5,49.9 107.3,49.9 107.3,54.4 100.5,54.4 100.5,68.4 			"/>
		</g>
		<g>
			<path class="st3" d="M180.5,47.3c0-2,0.7-3.6,2-5c1.3-1.4,2.9-2.1,4.8-2.1c1.9,0,3.4,0.7,4.8,2.1c1.3,1.4,2,3,2,5v19.2
				c0,2-0.7,3.6-2,5c-1.3,1.4-2.9,2.1-4.8,2.1c-1.9,0-3.5-0.7-4.8-2.1c-1.3-1.4-2-3-2-5V47.3z M185,47.3v19.2c0,0.7,0.2,1.3,0.6,1.8
				c0.4,0.5,1,0.7,1.6,0.7c0.6,0,1.1-0.3,1.6-0.7c0.4-0.5,0.7-1.1,0.7-1.8V47.3c0-0.7-0.2-1.3-0.7-1.8c-0.4-0.5-1-0.7-1.6-0.7
				c-0.6,0-1.1,0.2-1.6,0.7C185.2,46,185,46.6,185,47.3"/>
			<path class="st3" d="M211.5,40.9c1.8,0.1,3.3,0.8,4.6,2.1c1.3,1.4,1.9,3,1.9,4.9v13.4c0,2-0.7,3.7-2.1,5.1l2.1,6.4h-4.7l-1.4-4.5
				c-0.2,0-0.4,0-0.5,0h-2.3v4.5h-4.5V48v-7.1h6.7H211.5z M209.1,45.4V64h2.2c0.6,0,1.1-0.3,1.6-0.8c0.4-0.5,0.6-1.1,0.6-1.8V48
				c0-0.7-0.2-1.3-0.6-1.8c-0.4-0.5-1-0.7-1.6-0.7H209.1z"/>
			<path class="st3" d="M228.7,40.9h6.7h0.2c0.1,0,0.1,0,0.2,0c1.8,0.1,3.2,0.8,4.5,2.1c1.2,1.3,1.8,2.8,1.8,4.6
				c0,1.8-0.6,3.3-1.8,4.5c1.2,1.4,1.8,2.9,1.8,4.8v9c0,2-0.7,3.6-2,5c-1.3,1.4-2.9,2.1-4.8,2.1h-0.1h-6.6V40.9z M233.1,45.4v4.5
				h2.2h0.3c0.5-0.1,1-0.3,1.3-0.8c0.4-0.4,0.5-0.9,0.5-1.5c0-0.6-0.2-1.1-0.6-1.6c-0.4-0.4-1-0.6-1.6-0.6H233.1z M233.1,54.4v14.1
				h2.2c0.6,0,1.1-0.2,1.6-0.7c0.4-0.5,0.6-1.1,0.6-1.8v-9c0-0.7-0.2-1.3-0.6-1.8c-0.4-0.5-1-0.7-1.6-0.7H233.1z"/>
			<rect x="252.7" y="40.9" class="st3" width="4.5" height="32"/>
			<polygon class="st3" points="279.1,40.9 279.1,45.4 275.7,45.4 275.7,72.9 271.3,72.9 271.3,45.4 267.9,45.4 267.9,40.9 			"/>
		</g>
	</g>
	<g>
		<path class="st3" d="M150.7,42.5c0.1-0.7,0.1-1.3,0.2-2c-0.5,0.2-1,0.5-1.6,0.8c0,0.3,0,0.6-0.1,0.9c-0.5-0.1-0.9-0.1-1.4-0.1
			c-0.1,0-0.3,0-0.4,0c-5.2,0-9.6,3.3-11.2,8c-0.4,1.2-0.7,2.5-0.7,3.9c0,5.5,3.8,10.1,8.8,11.4c0.4-0.2,0.8-0.5,1.1-0.8
			c0.6-0.4,1.2-0.8,1.8-1.2c0.7-0.5,1.4-1,2.2-1.6c3.8-2.9,7.1-5.9,9.7-8.8C158.9,48,155.4,43.9,150.7,42.5 M155.5,49.9
			c-0.9,0.9-2.5,0.7-3.5-0.3c-1-1.1-1.1-2.6-0.2-3.5c0.9-0.9,2.5-0.7,3.5,0.3C156.3,47.5,156.4,49,155.5,49.9"/>
		<path class="st3" d="M151.1,37.4c0-0.3,0-0.7,0-1c-0.5-0.5-1.1-0.9-1.6-1.3c0,1,0,2,0,3.1C150,38,150.5,37.7,151.1,37.4"/>
		<path class="st3" d="M135.4,50.8c0.1-0.5,0.2-1.1,0.3-1.6c0.1-0.8,0.3-1.5,0.4-2.3c1.2-6.3,2.7-11.9,4.4-16
			c0.7-1.9,1.5-3.5,2.3-4.7c1.4-2.3,2.8-3.4,3.9-2.9c1.3,0.5,2.1,2.9,2.6,6.4c0.7,0.5,1.4,1,2.1,1.5c-0.1-9.3-1.5-15.9-4.1-17
			c-2.6-1.1-5.7,3.1-8.6,10.6c-0.7,1.7-1.3,3.7-2,5.7c-1.5,5-2.9,10.9-4,17.4c-0.1,0.7-0.2,1.4-0.3,2.1c-0.2,1.4-0.4,2.8-0.6,4.2
			c-0.5,4-0.9,7.8-1,11.4c1.1,1.6,2.2,3.1,3.4,4.4C133.8,64.9,134.2,58.1,135.4,50.8"/>
		<path class="st3" d="M130.8,79.6c0.6,5,1.9,8.4,3.7,9.1c1.5,0.6,3.3-0.6,5-3.3C136.6,84,133.6,82,130.8,79.6
			C130.9,79.6,130.8,79.6,130.8,79.6"/>
		<path class="st3" d="M141.4,76.3c0.7,0.4,1.3,0.7,2,1c0.4-1.1,0.8-2.2,1.2-3.3c-0.9,0.5-1.8,1-2.7,1.4
			C141.7,75.7,141.6,76,141.4,76.3"/>
		<path class="st2" d="M163.2,45.5c-1.4-2.4-2.9-4.6-4.5-6.6c-0.7-0.9-1.4-1.7-2.1-2.4c-1.5-1.6-3-3-4.6-4.2
			c-0.7-0.5-1.4-1.1-2.1-1.5c-2.1-1.5-4.3-2.7-6.5-3.5c-0.8,1.2-1.5,2.8-2.3,4.7c3,0.6,6.1,2,9.1,4.2c0.6,0.4,1.1,0.9,1.6,1.3
			c0.2,0.2,0.5,0.4,0.7,0.6c0.7,0.7,1.4,1.4,2.1,2.1c1.9,2.1,3.7,4.5,5.2,7.2c0.8,1.4,1.5,2.9,2.1,4.3c1-1.2,1.8-2.4,2.5-3.5
			C164.1,47.2,163.6,46.3,163.2,45.5"/>
		<path class="st1" d="M132.2,55.2c0,0-3.1,40.5,7.7,28.1C139.9,83.2,127.1,100.7,132.2,55.2"/>
		<path class="st0" d="M134,70.7c0.1,0,0.2-0.1,0.4-0.1c-0.1-0.1-0.3-0.3-0.4-0.4C134,70.3,134,70.5,134,70.7"/>
		<path class="st5" d="M167,55.6c-1,1.3-2.2,2.5-3.4,3.8c1.1,8.1-1.2,15.2-6.7,18.2c-3.9,2.2-8.8,1.9-13.5-0.2c-0.7-0.3-1.3-0.6-2-1
			c-0.2-0.1-0.4-0.2-0.6-0.3c-1.9,0.9-3.8,1.7-5.5,2.3c-1.5,0.5-3,1-4.4,1.3c2.7,2.5,5.7,4.4,8.7,5.8c5.1,2.4,10.3,3.2,14.9,2
			c0.5,0.9,1.5,1.5,2.6,1.5c1.7,0,3.1-1.4,3.1-3.1c0-0.3-0.1-0.6-0.1-0.9C167.8,79.4,170.3,67.8,167,55.6"/>
		<path class="st4" d="M130.8,79.5C130.8,79.5,130.8,79.5,130.8,79.5C130.8,79.6,130.9,79.6,130.8,79.5
			C130.9,79.5,130.8,79.5,130.8,79.5"/>
		<path class="st2" d="M131.6,54.3c0.2-1.4,0.4-2.8,0.6-4.2c-2.3,2-4.4,4.1-6.2,6.2c0.3,1,0.7,2,1.1,3
			C128.3,57.7,129.9,56,131.6,54.3"/>
		<path class="st2" d="M147.5,42.1c0.1,0,0.3,0,0.4,0c0.5-0.3,1-0.5,1.4-0.8c0.5-0.3,1-0.5,1.6-0.8c1.1-0.5,2.1-1,3.1-1.4
			c-0.7-0.7-1.4-1.4-2.1-2.1c-0.3,0.1-0.5,0.2-0.8,0.4c-0.5,0.3-1.1,0.5-1.6,0.8c-3.9,2-8,4.5-12,7.6c-0.5,0.4-0.9,0.7-1.4,1.1
			c-0.1,0.8-0.3,1.5-0.4,2.3c-0.1,0.5-0.2,1.1-0.3,1.6c0.3-0.3,0.6-0.5,1-0.8C137.9,45.4,142.3,42.1,147.5,42.1"/>
		<path class="st2" d="M173.2,36c-2.7-3.6-9.3-3.5-17.4-0.6c0.7,0.8,1.4,1.6,2.1,2.4c3.6-0.9,6.3-0.6,7.5,1c1.3,1.7,0.6,4.7-1.6,8.3
			c-0.7,1.1-1.6,2.3-2.5,3.5c-0.6,0.8-1.3,1.5-2,2.3c-2.6,2.9-5.9,5.9-9.7,8.8c-0.7,0.5-1.4,1.1-2.2,1.6c-0.6,0.4-1.2,0.8-1.8,1.2
			c-0.4,0.2-0.8,0.5-1.1,0.8c-3.6,2.3-7,4.1-10.1,5.2c-0.1,0-0.2,0.1-0.3,0.1c-1.3,0.5-2.5,0.8-3.6,1.1c-3.2,0.7-5.6,0.5-6.9-0.8
			c-0.1-0.1-0.2-0.2-0.3-0.3c-0.2-0.2-0.3-0.5-0.4-0.8c-0.5-0.7-0.9-1.4-1.3-2.2c-0.6-1-1.1-2-1.6-3.1c-3,5.3-3.7,10-1.6,12.9
			c2.1,2.8,6.7,3.4,12.6,2c0,0,0,0,0-0.1c0,0,0,0,0.1,0.1c1.4-0.3,2.9-0.8,4.4-1.3c1.8-0.6,3.6-1.4,5.5-2.3c0.3-0.2,0.7-0.4,1-0.5
			c0.9-0.4,1.8-0.9,2.7-1.4c3.1-1.7,6.3-3.8,9.5-6.2c3.6-2.7,6.8-5.6,9.6-8.5c1.2-1.3,2.3-2.5,3.4-3.8C173.5,47.6,176.2,40,173.2,36
			z"/>
		<path class="st5" d="M134,24.4c-1-0.8-2.2-1.2-3.6-1.2c-2.5,0-4.6,1.5-5.5,3.6c-10.4,6.2-12.4,22.6-5.1,37.9c0.5,1,1,2,1.6,3.1
			c0.4,0.8,0.9,1.5,1.3,2.2c0.2,0.4,0.5,0.7,0.7,1.1c1.3,1.3,3.7,1.5,6.9,0.8c1.1-0.3,2.3-0.6,3.6-1.1c0-0.2,0-0.4,0-0.6
			c-1.2-1.4-2.4-2.8-3.4-4.4c-0.5-0.8-1-1.6-1.5-2.4c-0.8-1.3-1.4-2.7-2-4c-0.4-1-0.8-2-1.1-3c-2.8-8.6-1.9-16.9,2.3-21.7
			c0.6,0.2,1.3,0.4,2.1,0.4c2.7,0,5-1.8,5.7-4.3c0.2,0,0.3,0,0.5-0.1c0.6-2.1,1.3-4,2-5.7C137,24.5,135.5,24.4,134,24.4"/>
		<path class="st5" d="M162.5,44.5c-1.4-2.4-2.9-4.6-4.5-6.6c-0.7-0.9-1.4-1.7-2.1-2.4c-1.5-1.6-3-3-4.6-4.2
			c-0.7-0.5-1.4-1.1-2.1-1.5c-2.1-1.5-4.3-2.7-6.5-3.5c-0.8,1.2-1.5,2.8-2.3,4.7c3,0.6,6.1,2,9.1,4.2c0.6,0.4,1.1,0.9,1.6,1.3
			c0.2,0.2,0.5,0.4,0.7,0.6c0.7,0.7,1.4,1.4,2.1,2.1c1.9,2.1,3.7,4.5,5.2,7.2c0.8,1.4,1.5,2.9,2.1,4.3c1-1.2,1.8-2.4,2.5-3.5
			C163.4,46.3,163,45.4,162.5,44.5"/>
		<path class="st5" d="M163.6,38.6c-1.7,0-3.1-1.4-3.1-3.1c0-1.7,1.4-3.1,3.1-3.1c1.7,0,3.1,1.4,3.1,3.1
			C166.7,37.2,165.3,38.6,163.6,38.6"/>
		<path class="st1" d="M136.5,55.9c0,0,3.1,7.7,8.5,8.3l2.4-1.8C147.5,62.4,140.6,63.8,136.5,55.9"/>
		<path class="st2" d="M126.4,29.6c0,0,1.5,3.3,4.1,3.6l1.2-0.8C131.7,32.4,128.4,33,126.4,29.6"/>
		<path class="st2" d="M161.3,34.4c0,0-0.6,1.8,0.3,2.9l0.7,0.1C162.3,37.4,160.8,36.4,161.3,34.4"/>
		<path class="st2" d="M121.6,62.8c0,0,21,34.3,40.5,16.2C162.1,79,142.8,102.4,121.6,62.8"/>
	</g>
</g>
</svg>
