<?xml version="1.0" encoding="utf-8"?>
<!-- Generator: Adobe Illustrator 16.0.3, SVG Export Plug-In . SVG Version: 6.00 Build 0)  -->
<!DOCTYPE svg PUBLIC "-//W3C//DTD SVG 1.1//EN" "http://www.w3.org/Graphics/SVG/1.1/DTD/svg11.dtd">
<svg version="1.1" id="Layer_1" xmlns="http://www.w3.org/2000/svg" xmlns:xlink="http://www.w3.org/1999/xlink" x="0px" y="0px"
	 width="288px" height="80.572px" viewBox="0 11.147 288 80.572" enable-background="new 0 11.147 288 80.572" xml:space="preserve"
	>
<g>
	<g>
		<g>
			<path fill="#FFFFFF" d="M-0.107,46.977c0-2.154,0.754-3.877,2.153-5.385c1.401-1.507,3.124-2.261,5.169-2.261
				s3.661,0.753,5.168,2.261c1.4,1.508,2.154,3.23,2.154,5.385v27.566H9.692v-4.846H4.847v4.846H0.001V46.977H-0.107z M9.584,64.959
				v-8.076v-9.906c0-0.754-0.215-1.4-0.646-1.938c-0.431-0.539-1.077-0.754-1.723-0.754S6.031,44.5,5.493,45.038
				c-0.431,0.538-0.646,1.185-0.646,1.938v9.906v8.076H9.584z"/>
			<path fill="#FFFFFF" d="M32.952,59.359h0.215c0.969,0,1.938,0.216,2.692,0.432c0.754,0.322,1.508,0.754,2.046,1.292
				c0.538,0.538,1.077,1.077,1.507,1.507c0.431,0.538,0.969,1.076,1.507,1.508c0.538,0.538,1.077,0.861,1.615,1.076v4.309
				c-0.861-0.108-1.723-0.432-2.369-0.754c-0.216,1.83-1.077,3.338-2.477,4.522c-1.399,1.184-2.907,1.831-4.738,1.831
				c-2.046,0-3.661-0.754-5.168-2.262c-1.4-1.508-2.153-3.23-2.153-5.385V46.977c0-2.154,0.753-3.877,2.153-5.385
				c1.399-1.507,3.122-2.261,5.168-2.261c2.045,0,3.769,0.753,5.168,2.261c1.4,1.508,2.153,3.23,2.153,5.385v2.691h-4.846v-2.691
				c0-0.754-0.215-1.4-0.646-1.938c-0.431-0.539-1.077-0.754-1.723-0.754c-0.646,0-1.185,0.215-1.723,0.754
				c-0.431,0.538-0.646,1.185-0.646,1.938V67.65c0,0.755,0.215,1.4,0.646,1.939c0.431,0.538,1.077,0.754,1.723,0.754
				c0.646,0,1.185-0.323,1.723-0.754c0.431-0.539,0.646-1.185,0.646-1.939v-3.337c-0.646-0.538-1.399-0.862-2.153-0.862h-0.323
				V59.359z"/>
			<rect x="52.335" y="40.084" fill="#FFFFFF" width="4.845" height="34.458"/>
			<polygon fill="#FFFFFF" points="68.595,40.084 73.44,40.084 73.44,69.697 80.654,69.697 80.654,74.543 68.595,74.543 			"/>
			<polygon fill="#FFFFFF" points="103.268,69.697 103.268,74.543 95.945,74.543 91.208,74.543 91.208,69.697 91.208,44.93 
				91.208,40.084 95.945,40.084 100.791,40.084 100.791,44.93 95.945,44.93 95.945,49.776 103.268,49.776 103.268,54.621 
				95.945,54.621 95.945,69.697 			"/>
		</g>
		<g>
			<path fill="#FFFFFF" d="M182.091,46.977c0-2.154,0.754-3.877,2.154-5.385c1.399-1.507,3.123-2.261,5.168-2.261
				c2.047,0,3.661,0.753,5.169,2.261c1.401,1.508,2.154,3.23,2.154,5.385V67.65c0,2.154-0.753,3.877-2.154,5.385
				c-1.4,1.508-3.122,2.261-5.169,2.261c-2.045,0-3.769-0.753-5.168-2.261c-1.4-1.508-2.154-3.23-2.154-5.385V46.977z
				 M186.938,46.977V67.65c0,0.755,0.215,1.4,0.646,1.939c0.431,0.538,1.076,0.754,1.724,0.754c0.646,0,1.184-0.323,1.722-0.754
				c0.432-0.539,0.754-1.185,0.754-1.939V46.977c0-0.754-0.216-1.4-0.754-1.938c-0.43-0.539-1.076-0.754-1.722-0.754
				c-0.647,0-1.186,0.215-1.724,0.754C187.152,45.576,186.938,46.223,186.938,46.977"/>
			<path fill="#FFFFFF" d="M215.474,40.084c1.938,0.108,3.553,0.862,4.952,2.261c1.4,1.508,2.047,3.23,2.047,5.276v14.43
				c0,2.153-0.754,3.985-2.262,5.493l2.262,6.89h-5.062l-1.507-4.845c-0.217,0-0.431,0-0.539,0h-2.478v4.845h-4.845V47.73v-7.646
				h7.214H215.474z M212.888,44.93v20.029h2.369c0.647,0,1.185-0.323,1.725-0.861c0.43-0.538,0.646-1.186,0.646-1.938V47.73
				c0-0.754-0.216-1.399-0.646-1.938c-0.432-0.539-1.077-0.754-1.725-0.754h-2.369V44.93z"/>
			<path fill="#FFFFFF" d="M233.994,40.084h7.215h0.215c0.108,0,0.108,0,0.216,0c1.938,0.108,3.445,0.862,4.845,2.261
				c1.293,1.4,1.938,3.015,1.938,4.953c0,1.938-0.646,3.554-1.938,4.847c1.293,1.507,1.938,3.122,1.938,5.169v9.69
				c0,2.154-0.753,3.877-2.153,5.385c-1.399,1.507-3.122,2.261-5.168,2.261h-0.107h-7.108V40.084H233.994z M238.732,44.93v4.846
				h2.369h0.322c0.539-0.108,1.077-0.323,1.4-0.861c0.431-0.431,0.539-0.969,0.539-1.616c0-0.646-0.216-1.184-0.646-1.723
				c-0.431-0.431-1.077-0.646-1.723-0.646H238.732z M238.732,54.621v15.184h2.369c0.646,0,1.185-0.215,1.723-0.754
				c0.431-0.538,0.646-1.184,0.646-1.938v-9.691c0-0.755-0.216-1.4-0.646-1.938c-0.431-0.54-1.076-0.754-1.723-0.754h-2.369V54.621z
				"/>
			<rect x="259.838" y="40.084" fill="#FFFFFF" width="4.846" height="34.458"/>
			<polygon fill="#FFFFFF" points="288.266,40.084 288.266,44.93 284.605,44.93 284.605,74.543 279.866,74.543 279.866,44.93 
				276.206,44.93 276.206,40.084 			"/>
		</g>
	</g>
	<g>
		<path fill="#29AAE2" d="M150.002,41.808c0.108-0.754,0.108-1.4,0.217-2.154c-0.54,0.215-1.077,0.539-1.725,0.861
			c0,0.324,0,0.647-0.107,0.97c-0.538-0.107-0.97-0.107-1.508-0.107c-0.107,0-0.323,0-0.43,0c-5.6,0-10.339,3.553-12.061,8.614
			c-0.431,1.292-0.754,2.692-0.754,4.199c0,5.923,4.092,10.876,9.476,12.277c0.431-0.217,0.861-0.54,1.185-0.863
			c0.646-0.431,1.292-0.861,1.938-1.291c0.754-0.538,1.507-1.077,2.369-1.724c4.092-3.122,7.646-6.352,10.444-9.476
			C158.832,47.73,155.063,43.315,150.002,41.808 M155.171,49.776c-0.97,0.969-2.692,0.754-3.769-0.323
			c-1.077-1.185-1.184-2.8-0.216-3.769c0.97-0.969,2.692-0.754,3.769,0.323C156.032,47.192,156.141,48.807,155.171,49.776"/>
		<path fill="#29AAE2" d="M150.433,36.315c0-0.323,0-0.753,0-1.077c-0.539-0.539-1.185-0.969-1.724-1.4c0,1.077,0,2.154,0,3.339
			C149.248,36.962,149.787,36.639,150.433,36.315"/>
		<path fill="#29AAE2" d="M133.526,50.745c0.108-0.539,0.216-1.185,0.323-1.723c0.107-0.862,0.323-1.615,0.431-2.478
			c1.292-6.783,2.908-12.813,4.738-17.229c0.754-2.046,1.615-3.77,2.477-5.061c1.508-2.478,3.015-3.662,4.2-3.124
			c1.399,0.539,2.26,3.124,2.799,6.893c0.754,0.538,1.508,1.077,2.263,1.615c-0.108-10.015-1.615-17.122-4.416-18.306
			c-2.799-1.185-6.138,3.338-9.26,11.414c-0.754,1.831-1.4,3.985-2.154,6.138c-1.615,5.384-3.123,11.737-4.307,18.736
			c-0.108,0.754-0.215,1.508-0.324,2.262c-0.214,1.507-0.43,3.015-0.646,4.523c-0.539,4.307-0.969,8.399-1.077,12.275
			c1.185,1.724,2.369,3.339,3.662,4.738C131.804,65.928,132.235,58.605,133.526,50.745"/>
		<path fill="#29AAE2" d="M128.573,81.758c0.646,5.383,2.046,9.045,3.984,9.799c1.615,0.646,3.553-0.646,5.384-3.553
			C134.819,86.495,131.589,84.342,128.573,81.758C128.681,81.758,128.573,81.758,128.573,81.758"/>
		<path fill="#29AAE2" d="M139.987,78.203c0.754,0.432,1.4,0.754,2.154,1.077c0.431-1.183,0.861-2.369,1.292-3.554
			c-0.968,0.539-1.938,1.077-2.907,1.508C140.311,77.558,140.203,77.881,139.987,78.203"/>
		<path fill="#5AA53C" d="M163.463,45.038c-1.508-2.584-3.123-4.954-4.847-7.107c-0.754-0.969-1.508-1.83-2.262-2.584
			c-1.614-1.723-3.229-3.231-4.952-4.523c-0.754-0.538-1.509-1.184-2.261-1.615c-2.263-1.615-4.632-2.908-7-3.769
			c-0.862,1.292-1.616,3.015-2.477,5.061c3.231,0.646,6.569,2.153,9.8,4.523c0.646,0.43,1.184,0.968,1.722,1.399
			c0.216,0.215,0.538,0.43,0.754,0.646c0.754,0.754,1.508,1.508,2.261,2.262c2.047,2.261,3.984,4.846,5.6,7.753
			c0.862,1.508,1.616,3.123,2.263,4.63c1.076-1.292,1.938-2.584,2.691-3.769C164.432,46.869,163.893,45.899,163.463,45.038"/>
		<path fill="#2592C1" d="M130.082,55.484c0,0-3.338,43.609,8.291,30.257C138.372,85.634,124.589,104.479,130.082,55.484"/>
		<path fill="#88B689" d="M132.02,72.174c0.107,0,0.215-0.107,0.43-0.107c-0.108-0.107-0.323-0.323-0.43-0.431
			C132.02,71.743,132.02,71.959,132.02,72.174"/>
		<path fill="#69BD45" d="M167.555,55.913c-1.077,1.401-2.369,2.692-3.662,4.093c1.186,8.723-1.291,16.367-7.214,19.598
			c-4.2,2.369-9.478,2.047-14.537-0.214c-0.754-0.324-1.4-0.647-2.154-1.078c-0.215-0.108-0.431-0.214-0.646-0.323
			c-2.045,0.969-4.092,1.831-5.922,2.478c-1.615,0.538-3.23,1.077-4.738,1.399c2.908,2.692,6.138,4.737,9.369,6.245
			c5.492,2.586,11.092,3.446,16.044,2.153c0.539,0.971,1.615,1.616,2.8,1.616c1.83,0,3.338-1.508,3.338-3.339
			c0-0.322-0.108-0.646-0.108-0.969C168.415,81.543,171.107,69.051,167.555,55.913"/>
		<path fill="#F8DE02" d="M128.573,81.65L128.573,81.65C128.573,81.758,128.681,81.758,128.573,81.65
			C128.681,81.65,128.573,81.65,128.573,81.65"/>
		<path fill="#5AA53C" d="M129.435,54.514c0.215-1.507,0.431-3.015,0.647-4.522c-2.478,2.154-4.739,4.416-6.677,6.676
			c0.323,1.077,0.754,2.154,1.185,3.231C125.881,58.176,127.604,56.344,129.435,54.514"/>
		<path fill="#5AA53C" d="M146.556,41.377c0.107,0,0.323,0,0.432,0c0.538-0.323,1.076-0.538,1.507-0.862
			c0.538-0.322,1.076-0.538,1.725-0.861c1.184-0.539,2.26-1.077,3.337-1.507c-0.754-0.754-1.508-1.507-2.261-2.261
			c-0.324,0.107-0.538,0.215-0.862,0.43c-0.539,0.324-1.185,0.538-1.724,0.862c-4.199,2.153-8.614,4.845-12.921,8.183
			c-0.539,0.431-0.969,0.754-1.508,1.184c-0.107,0.862-0.323,1.615-0.431,2.478c-0.107,0.538-0.215,1.184-0.323,1.723
			c0.323-0.323,0.646-0.539,1.077-0.861C136.219,44.93,140.957,41.377,146.556,41.377"/>
		<path fill="#5AA53C" d="M174.231,34.808c-2.907-3.876-10.015-3.769-18.737-0.646c0.754,0.862,1.508,1.723,2.262,2.584
			c3.876-0.969,6.783-0.646,8.076,1.077c1.399,1.831,0.646,5.061-1.724,8.938c-0.754,1.185-1.723,2.477-2.691,3.769
			c-0.646,0.861-1.399,1.616-2.155,2.477c-2.799,3.122-6.352,6.353-10.445,9.476c-0.753,0.539-1.507,1.184-2.367,1.723
			c-0.647,0.431-1.293,0.861-1.939,1.292c-0.43,0.217-0.861,0.54-1.184,0.862c-3.877,2.477-7.538,4.415-10.876,5.6
			c-0.108,0-0.215,0.107-0.323,0.107c-1.4,0.538-2.692,0.861-3.877,1.185c-3.446,0.754-6.03,0.538-7.43-0.861
			c-0.107-0.108-0.215-0.216-0.323-0.323c-0.215-0.215-0.323-0.539-0.431-0.861c-0.539-0.754-0.969-1.508-1.4-2.369
			c-0.646-1.077-1.185-2.154-1.723-3.339c-3.23,5.708-3.984,10.769-1.723,13.893c2.261,3.015,7.215,3.66,13.568,2.153
			c0,0,0,0,0-0.108c0,0,0,0,0.108,0.108c1.508-0.324,3.123-0.862,4.738-1.4c1.938-0.646,3.877-1.508,5.922-2.477
			c0.323-0.217,0.754-0.432,1.077-0.539c0.969-0.43,1.938-0.969,2.908-1.507c3.337-1.831,6.784-4.093,10.23-6.677
			c3.876-2.906,7.322-6.031,10.337-9.152c1.292-1.4,2.477-2.693,3.661-4.093C174.554,47.299,177.461,39.115,174.231,34.808z"/>
		<path fill="#69BD45" d="M132.02,22.317c-1.077-0.861-2.37-1.292-3.877-1.292c-2.692,0-4.954,1.616-5.923,3.877
			c-11.199,6.676-13.352,24.336-5.492,40.813c0.539,1.077,1.077,2.153,1.723,3.337c0.431,0.861,0.969,1.615,1.4,2.369
			c0.215,0.432,0.538,0.754,0.753,1.185c1.4,1.4,3.984,1.614,7.43,0.862c1.185-0.324,2.477-0.646,3.877-1.186
			c0-0.215,0-0.43,0-0.646c-1.292-1.508-2.584-3.015-3.662-4.739c-0.538-0.859-1.077-1.723-1.615-2.583
			c-0.861-1.401-1.507-2.907-2.154-4.308c-0.43-1.076-0.861-2.153-1.185-3.23c-3.015-9.261-2.046-18.198,2.477-23.367
			c0.646,0.215,1.399,0.431,2.261,0.431c2.908,0,5.384-1.938,6.138-4.63c0.215,0,0.323,0,0.538-0.107
			c0.646-2.261,1.399-4.307,2.154-6.138C135.25,22.425,133.634,22.317,132.02,22.317"/>
		<path fill="#69BD45" d="M162.709,43.961c-1.509-2.584-3.124-4.953-4.847-7.107c-0.754-0.968-1.508-1.829-2.261-2.584
			c-1.615-1.723-3.229-3.23-4.953-4.522c-0.755-0.539-1.507-1.185-2.262-1.615c-2.262-1.615-4.63-2.907-6.999-3.769
			c-0.862,1.292-1.615,3.015-2.477,5.061c3.231,0.646,6.569,2.153,9.798,4.523c0.647,0.431,1.185,0.969,1.724,1.4
			c0.216,0.216,0.538,0.431,0.754,0.646c0.754,0.754,1.508,1.508,2.262,2.262c2.046,2.26,3.983,4.845,5.599,7.752
			c0.862,1.508,1.616,3.123,2.263,4.631c1.076-1.292,1.938-2.585,2.691-3.769C163.679,45.899,163.247,44.93,162.709,43.961"/>
		<path fill="#69BD45" d="M163.893,37.607c-1.829,0-3.338-1.507-3.338-3.338s1.509-3.338,3.338-3.338
			c1.831,0,3.339,1.507,3.339,3.338S165.724,37.607,163.893,37.607"/>
		<path fill="#2592C1" d="M134.711,56.238c0,0,3.339,8.289,9.153,8.936l2.585-1.938C146.556,63.236,139.126,64.743,134.711,56.238"
			/>
		<path fill="#5AA53C" d="M123.835,27.917c0,0,1.616,3.553,4.415,3.876l1.293-0.861C129.543,30.932,125.989,31.577,123.835,27.917"
			/>
		<path fill="#5AA53C" d="M161.417,33.085c0,0-0.646,1.939,0.322,3.123l0.754,0.107C162.493,36.315,160.877,35.239,161.417,33.085"
			/>
		<path fill="#5AA53C" d="M118.667,63.666c0,0,22.613,36.936,43.611,17.445C162.277,81.111,141.495,106.31,118.667,63.666"/>
	</g>
</g>
</svg>
